<svg width="20" height="20" viewBox="0 0 20 20" fill="none" xmlns="http://www.w3.org/2000/svg">
<path d="M6.74996 17.6771C5.73607 17.2396 4.85413 16.6458 4.10413 15.8958C3.35413 15.1458 2.76038 14.2639 2.32288 13.25C1.88538 12.2361 1.66663 11.1528 1.66663 10C1.66663 8.84722 1.88538 7.76389 2.32288 6.75C2.76038 5.73611 3.35413 4.85416 4.10413 4.10416C4.85413 3.35416 5.73607 2.76041 6.74996 2.32291C7.76385 1.88541 8.84718 1.66666 9.99996 1.66666C11.1527 1.66666 12.2361 1.88541 13.25 2.32291C14.2638 2.76041 15.1458 3.35416 15.8958 4.10416C16.6458 4.85416 17.2395 5.73611 17.677 6.75C18.1145 7.76389 18.3333 8.84722 18.3333 10C18.3333 11.1528 18.1145 12.2361 17.677 13.25C17.2395 14.2639 16.6458 15.1458 15.8958 15.8958C15.1458 16.6458 14.2638 17.2396 13.25 17.6771C12.2361 18.1146 11.1527 18.3333 9.99996 18.3333C8.84718 18.3333 7.76385 18.1146 6.74996 17.6771ZM10.8333 16.6042C12.4861 16.3958 13.8715 15.6701 14.9895 14.4271C16.1076 13.184 16.6666 11.7083 16.6666 10C16.6666 8.29166 16.1076 6.81597 14.9895 5.57291C13.8715 4.32986 12.4861 3.60416 10.8333 3.39583V16.6042Z" fill="#F7E06D"/>
</svg>
