<svg width="20" height="20" viewBox="0 0 20 20" fill="none" xmlns="http://www.w3.org/2000/svg">
<path d="M5.33332 15H7.08332L7.99999 12.4583H12L12.9167 15H14.6667L10.875 5H9.12499L5.33332 15ZM8.49999 11L9.95832 6.875H10.0417L11.5 11H8.49999ZM3.33332 18.3333C2.87499 18.3333 2.48263 18.1701 2.15624 17.8437C1.82985 17.5174 1.66666 17.125 1.66666 16.6667V3.33333C1.66666 2.875 1.82985 2.48264 2.15624 2.15625C2.48263 1.82986 2.87499 1.66666 3.33332 1.66666H16.6667C17.125 1.66666 17.5174 1.82986 17.8437 2.15625C18.1701 2.48264 18.3333 2.875 18.3333 3.33333V16.6667C18.3333 17.125 18.1701 17.5174 17.8437 17.8437C17.5174 18.1701 17.125 18.3333 16.6667 18.3333H3.33332ZM3.33332 16.6667H16.6667V3.33333H3.33332V16.6667Z" fill="#3C342F"/>
</svg>
