<svg width="20" height="20" viewBox="0 0 20 20" fill="none" xmlns="http://www.w3.org/2000/svg">
<g clip-path="url(#clip0_16_52)">
<path d="M11.6666 17.2708V15.5625C12.9166 15.2014 13.9236 14.5069 14.6875 13.4792C15.4514 12.4514 15.8333 11.2847 15.8333 9.97917C15.8333 8.67361 15.4514 7.50695 14.6875 6.47917C13.9236 5.45139 12.9166 4.75695 11.6666 4.39584V2.6875C13.3889 3.07639 14.7916 3.94792 15.875 5.30209C16.9583 6.65625 17.5 8.21528 17.5 9.97917C17.5 11.7431 16.9583 13.3021 15.875 14.6563C14.7916 16.0104 13.3889 16.8819 11.6666 17.2708ZM9.99998 16.6667L5.83331 12.5H2.49998V7.5H5.83331L9.99998 3.33334V16.6667ZM11.6666 13.3333V6.625C12.3194 6.93056 12.8298 7.38889 13.1979 8C13.566 8.61111 13.75 9.27778 13.75 10C13.75 10.7083 13.566 11.3646 13.1979 11.9688C12.8298 12.5729 12.3194 13.0278 11.6666 13.3333ZM8.33331 12.625V7.375L6.54165 9.16667H4.16665V10.8333H6.54165L8.33331 12.625ZM0.833313 5.83334V0.833336H5.83331V2.5H2.49998V5.83334H0.833313ZM14.1666 19.1667V17.5H17.5V14.1667H19.1666V19.1667H14.1666Z" fill="#3C342F"/>
</g>
<defs>
<clipPath id="clip0_16_52">
<rect width="20" height="20" fill="white"/>
</clipPath>
</defs>
</svg>
