<svg width="28" height="28" viewBox="0 0 28 28" fill="none" xmlns="http://www.w3.org/2000/svg">
<g clip-path="url(#clip0_16_12)">
<path d="M27.9938 18.7633C27.8276 17.7663 26.8322 14.9782 24.9568 13.1881C24.6607 12.9054 24.3524 12.5756 24.0261 12.2263C22.4482 10.5375 20.2872 8.22462 16.419 8.22462C13.6281 8.22462 11.9046 8.6077 10.6463 8.88743C9.88014 9.05773 9.27508 9.1922 8.67816 9.1922C8.46324 9.1922 8.20922 9.16912 7.91511 9.14233C6.01182 8.96913 2.82665 8.67929 0.0549819 13.7835C-0.064565 14.0037 0.0170288 14.279 0.237146 14.3986C0.457263 14.5181 0.732615 14.4365 0.852162 14.2164C3.33897 9.63687 6.04321 9.88296 7.83291 10.0458C8.13588 10.0733 8.42206 10.0994 8.67822 10.0994C9.37472 10.0994 10.0552 9.94809 10.8432 9.77293C12.1283 9.48724 13.7277 9.13177 16.419 9.13177C19.8934 9.13177 21.8173 11.191 23.3633 12.8456C23.6987 13.2046 24.0157 13.5438 24.3304 13.8443C25.0751 14.5552 25.6855 15.473 26.1438 16.3547C25.7934 16.0611 25.4038 15.8134 24.9862 15.6712L22.0479 13.6608C21.9647 13.1826 21.6481 12.12 20.4578 11.6437C18.9664 11.0469 16.6653 9.74783 16.6422 9.73487C16.4242 9.61149 16.1475 9.68827 16.0241 9.90626C15.9007 10.1243 15.9775 10.401 16.1955 10.5244C16.2919 10.5789 18.5723 11.8664 20.1208 12.486C21.0979 12.877 21.1684 13.9002 21.1709 13.9407C21.1772 14.0831 21.2502 14.2142 21.3678 14.2947L21.6521 14.4891C21.3646 14.8701 20.8364 15.5716 20.4086 16.1491C20.104 16.5604 19.9548 17.1079 19.8839 17.6055C19.6351 16.6829 19.2563 15.5506 18.7381 14.7264C18.1119 13.7302 17.818 12.8926 17.8153 12.8846C17.7336 12.6479 17.4755 12.522 17.2387 12.6037C17.0019 12.6854 16.876 12.9436 16.9577 13.1803C16.9668 13.2068 17.1237 13.6563 17.4517 14.2971C17.3755 14.388 16.9837 14.7681 15.6702 14.9297C15.7158 14.8757 15.7617 14.8222 15.8062 14.7663C15.9622 14.5703 15.9297 14.285 15.7337 14.129C15.5378 13.973 15.2524 14.0054 15.0964 14.2014C14.1255 15.4213 12.8398 16.1497 11.8067 16.7351C11.6478 16.8251 11.4957 16.9113 11.3523 16.9949C10.6415 17.4095 10.3488 17.9096 10.2316 18.2942C10.1831 18.229 10.1654 18.1468 10.1848 18.0672C10.45 16.9774 11.0668 14.2581 11.0668 12.5487C11.0668 11.5406 11.8074 11.0086 11.8363 10.9882C12.0084 10.871 12.0785 10.6516 12.0063 10.4564C11.9342 10.261 11.7385 10.1399 11.5313 10.1626C7.38918 10.6172 4.66629 15.4295 4.55237 15.6341C4.43064 15.8529 4.50928 16.1289 4.72797 16.2507C4.94667 16.3726 5.22284 16.294 5.3449 16.0754C5.36224 16.0444 6.54475 13.9585 8.44011 12.4804C7.94218 13.0849 7.43987 13.8409 6.98815 14.7824C6.87982 15.0082 6.97508 15.2791 7.20089 15.3875C7.26416 15.4178 7.33099 15.4322 7.39678 15.4322C7.56582 15.4322 7.72802 15.3373 7.80601 15.1747C8.59066 13.5391 9.53626 12.5367 10.2187 11.9702C10.1819 12.1495 10.1596 12.3418 10.1596 12.5485C10.1596 14.1597 9.56082 16.7945 9.30329 17.8525C9.20518 18.2558 9.32249 18.6725 9.61704 18.967L10.2925 19.6425C10.3775 19.7276 10.4929 19.7754 10.6132 19.7754H11.5808C11.8312 19.7754 12.0343 19.5723 12.0343 19.3218C12.0343 19.0713 11.8313 18.8682 11.5808 18.8682H11.0655C11.0677 18.8366 11.0666 18.8042 11.0618 18.7715C11.061 18.7664 11.0212 18.2381 11.8092 17.7784C11.9495 17.6966 12.0983 17.6123 12.2537 17.5242C12.5871 17.3353 12.9601 17.1237 13.3483 16.8794L13.1416 17.9127C13.0677 18.2825 13.1827 18.6624 13.4493 18.9291L13.6789 19.1587L13.6791 19.1589L14.1628 19.6426C14.2479 19.7277 14.3633 19.7755 14.4835 19.7755H15.4511C15.7016 19.7755 15.9047 19.5724 15.9047 19.3219C15.9047 19.0714 15.7016 18.8683 15.4511 18.8683H14.6713L14.4767 18.6737C14.5865 18.2416 15.0671 17.5936 15.463 17.0601C15.8293 16.5665 16.1519 16.1315 16.311 15.7457C17.1343 15.5853 17.6218 15.3334 17.9079 15.1092C17.9282 15.1423 17.9489 15.1755 17.97 15.209C18.6201 16.2434 19.0402 17.8812 19.2327 18.7656C19.3601 19.3507 19.8891 19.7754 20.4906 19.7754H20.7729C21.0234 19.7754 21.2265 19.5724 21.2265 19.3219C21.2265 19.0713 21.0234 18.8683 20.7729 18.8683H20.7411C20.7424 18.8472 20.7429 18.826 20.7414 18.8044C20.712 18.4043 20.7259 17.2444 21.1373 16.689C21.2183 16.5797 21.303 16.4657 21.3889 16.3505L22.6297 19.1704C22.7914 19.5379 23.1553 19.7754 23.5569 19.7754H24.1594C24.4098 19.7754 24.613 19.5724 24.613 19.3219C24.613 19.0713 24.4099 18.8683 24.1594 18.8683H23.644C23.6457 18.8416 23.6456 18.8146 23.6425 18.7872C23.5528 17.9935 23.5159 16.6295 23.7396 15.9176L24.5273 16.4566C24.5647 16.4821 24.6056 16.5019 24.6489 16.5154C26.007 16.9373 27.1342 19.0298 27.1453 19.0506C27.2258 19.2023 27.3819 19.2916 27.546 19.2916C27.5943 19.2916 27.6433 19.2839 27.6913 19.2676C27.9025 19.1962 28.0304 18.9827 27.9938 18.7633ZM14.7349 16.5195C14.5507 16.7677 14.3646 17.0186 14.196 17.2683L14.4247 16.1246C14.5154 16.053 14.6057 15.9796 14.6955 15.9033C14.7054 15.904 14.7153 15.9049 14.7255 15.9049C14.7297 15.9049 14.7339 15.9048 14.7381 15.9047C14.8969 15.9003 15.0482 15.8932 15.1932 15.8839C15.058 16.0839 14.8953 16.3033 14.7349 16.5195ZM17.4528 14.3068C17.4528 14.3068 17.4534 14.3049 17.4545 14.3021C17.4557 14.3044 17.4569 14.3067 17.4581 14.309L17.4528 14.3068ZM22.6747 17.0192L22.0136 15.5168C22.1658 15.3144 22.3009 15.1351 22.4017 15.0018L22.9713 15.3915C22.7796 15.8319 22.6997 16.4357 22.6747 17.0192Z" fill="#5A4632"/>
<path d="M7.26611 10.9136C7.10861 10.7189 6.82314 10.6886 6.6284 10.8461C6.50913 10.9425 3.69414 13.2358 2.46559 15.735C2.35512 15.9598 2.44776 16.2316 2.67252 16.3422C2.73689 16.3738 2.80509 16.3888 2.8723 16.3888C3.0398 16.3888 3.20086 16.2957 3.27972 16.1352C4.41913 13.8173 7.17117 11.5738 7.19879 11.5514C7.39348 11.3939 7.42361 11.1082 7.26611 10.9136Z" fill="#5A4632"/>
<path d="M5.02146 11.2068C4.89841 10.9886 4.62164 10.9116 4.40355 11.0347C4.33814 11.0716 2.78173 11.974 1.04634 15.0264C0.922523 15.2441 0.998703 15.5211 1.21647 15.6448C1.28723 15.685 1.36429 15.7042 1.44025 15.7042C1.59802 15.7041 1.75137 15.6217 1.83498 15.4748C3.42169 12.6838 4.82415 11.8397 4.85149 11.8236C5.068 11.6999 5.14418 11.4242 5.02146 11.2068Z" fill="#5A4632"/>
</g>
<defs>
<clipPath id="clip0_16_12">
<rect width="28" height="28" fill="white"/>
</clipPath>
</defs>
</svg>
