<svg width="20" height="20" viewBox="0 0 20 20" fill="none" xmlns="http://www.w3.org/2000/svg">
<path d="M6.66669 13.3333H13.3334V6.66666H6.66669V13.3333ZM10 18.3333C8.84724 18.3333 7.76391 18.1146 6.75002 17.6771C5.73613 17.2396 4.85419 16.6458 4.10419 15.8958C3.35419 15.1458 2.76044 14.2639 2.32294 13.25C1.88544 12.2361 1.66669 11.1528 1.66669 10C1.66669 8.84722 1.88544 7.76389 2.32294 6.75C2.76044 5.73611 3.35419 4.85416 4.10419 4.10416C4.85419 3.35416 5.73613 2.76041 6.75002 2.32291C7.76391 1.88541 8.84724 1.66666 10 1.66666C11.1528 1.66666 12.2361 1.88541 13.25 2.32291C14.2639 2.76041 15.1459 3.35416 15.8959 4.10416C16.6459 4.85416 17.2396 5.73611 17.6771 6.75C18.1146 7.76389 18.3334 8.84722 18.3334 10C18.3334 11.1528 18.1146 12.2361 17.6771 13.25C17.2396 14.2639 16.6459 15.1458 15.8959 15.8958C15.1459 16.6458 14.2639 17.2396 13.25 17.6771C12.2361 18.1146 11.1528 18.3333 10 18.3333ZM10 16.6667C11.8611 16.6667 13.4375 16.0208 14.7292 14.7292C16.0209 13.4375 16.6667 11.8611 16.6667 10C16.6667 8.13889 16.0209 6.5625 14.7292 5.27083C13.4375 3.97916 11.8611 3.33333 10 3.33333C8.13891 3.33333 6.56252 3.97916 5.27085 5.27083C3.97919 6.5625 3.33335 8.13889 3.33335 10C3.33335 11.8611 3.97919 13.4375 5.27085 14.7292C6.56252 16.0208 8.13891 16.6667 10 16.6667Z" fill="#F7E06D"/>
</svg>
